<svg id="visual" viewBox="0 0 960 200" width="960" height="200" xmlns="http://www.w3.org/2000/svg" xmlns:xlink="http://www.w3.org/1999/xlink" version="1.1"><path d="M0 136L26.7 138C53.3 140 106.7 144 160 143.7C213.3 143.3 266.7 138.7 320 133.5C373.3 128.3 426.7 122.7 480 115.5C533.3 108.3 586.7 99.7 640 94C693.3 88.3 746.7 85.7 800 88.8C853.3 92 906.7 101 933.3 105.5L960 110L960 201L933.3 201C906.7 201 853.3 201 800 201C746.7 201 693.3 201 640 201C586.7 201 533.3 201 480 201C426.7 201 373.3 201 320 201C266.7 201 213.3 201 160 201C106.7 201 53.3 201 26.7 201L0 201Z" fill="#153448" stroke-linecap="round" stroke-linejoin="miter"></path></svg>